<?xml version="1.0" standalone="no"?><!DOCTYPE svg PUBLIC "-//W3C//DTD SVG 1.1//EN" "http://www.w3.org/Graphics/SVG/1.1/DTD/svg11.dtd"><svg t="1654238790298" class="icon" viewBox="0 0 1024 1024" version="1.1" xmlns="http://www.w3.org/2000/svg" p-id="12985" xmlns:xlink="http://www.w3.org/1999/xlink" width="32" height="32"><defs><style type="text/css">@font-face { font-family: feedback-iconfont; src: url("//at.alicdn.com/t/font_1031158_u69w8yhxdu.woff2?t=1630033759944") format("woff2"), url("//at.alicdn.com/t/font_1031158_u69w8yhxdu.woff?t=1630033759944") format("woff"), url("//at.alicdn.com/t/font_1031158_u69w8yhxdu.ttf?t=1630033759944") format("truetype"); }
</style></defs><path d="M829.466422 255.903298l-253.800403 0 0-61.918211c0-36.452213-29.551036-66.00325-66.00325-66.00325L193.945177 127.981836c-36.452213 0-66.00325 29.551036-66.00325 66.00325l0 127.921461 0 59.875692 0 447.724091c0 36.452213 29.551036 66.00325 66.00325 66.00325l635.521245 0c36.452213 0 66.00325-29.551036 66.00325-66.00325L895.469672 321.906547C895.469672 285.453311 865.918635 255.903298 829.466422 255.903298zM831.508941 798.291398c0 18.367323-14.890128 33.257451-33.257451 33.257451l-319.803653 0L225.160109 831.54885c-18.367323 0-33.257451-14.890128-33.257451-33.257451L191.902658 353.120456 191.902658 225.200018c0-18.367323 14.890128-33.257451 33.257451-33.257451l253.287727 0c18.367323 0 33.257451 14.890128 33.257451 33.257451l0 94.66401 286.546202 0c18.367323 0 33.257451 14.890128 33.257451 33.257451L831.508941 798.291398z" p-id="12986" fill="#707070"></path><path d="M191.902658 383.823736l639.606283 0 0 63.960731-639.606283 0 0-63.960731Z" p-id="12987" fill="#707070"></path></svg>