<?xml version="1.0" standalone="no"?><!DOCTYPE svg PUBLIC "-//W3C//DTD SVG 1.1//EN" "http://www.w3.org/Graphics/SVG/1.1/DTD/svg11.dtd"><svg t="1654225744965" class="icon" viewBox="0 0 1024 1024" version="1.1" xmlns="http://www.w3.org/2000/svg" p-id="3009" xmlns:xlink="http://www.w3.org/1999/xlink" width="200" height="200"><defs><style type="text/css">@font-face { font-family: feedback-iconfont; src: url("//at.alicdn.com/t/font_1031158_u69w8yhxdu.woff2?t=1630033759944") format("woff2"), url("//at.alicdn.com/t/font_1031158_u69w8yhxdu.woff?t=1630033759944") format("woff"), url("//at.alicdn.com/t/font_1031158_u69w8yhxdu.ttf?t=1630033759944") format("truetype"); }
</style></defs><path d="M640 682.666667a170.666667 170.666667 0 0 0 170.666667-170.666667V256a170.666667 170.666667 0 0 0-170.666667-170.666667H213.333333a170.666667 170.666667 0 0 0-170.666666 170.666667v533.333333a21.333333 21.333333 0 0 0 21.333333 21.333334 20.906667 20.906667 0 0 0 14.933333-6.4l85.333334-85.333334A128 128 0 0 1 256 682.666667z m256-426.666667v341.333333a170.666667 170.666667 0 0 1-170.666667 170.666667H213.333333a85.333333 85.333333 0 0 0 85.333334 85.333333h469.333333a128 128 0 0 1 90.88 37.546667l85.333333 85.333333a20.906667 20.906667 0 0 0 14.933334 6.4 21.333333 21.333333 0 0 0 21.333333-21.333333V341.333333A85.333333 85.333333 0 0 0 896 256z" p-id="3010" fill="#dbe2ef"></path></svg>